<svg width="36" height="36" viewBox="0 0 36 36" fill="none" xmlns="http://www.w3.org/2000/svg">
<g filter="url(#filter0_d_492_631)">
<rect x="2.5" y="1.5" width="31" height="31" rx="7.5" stroke="#12131A" stroke-opacity="0.3"/>
<path d="M8.97099 21.6173C8.83145 21.6173 8.71954 21.5505 8.63378 21.4198C8.54512 21.2921 8.50006 21.1237 8.50006 20.9147C8.50006 20.4472 8.69628 20.2121 9.08727 20.2121C9.56691 20.2121 9.99569 20.0147 10.3721 19.6198C10.7515 19.2221 11.0524 18.6792 11.2733 17.994C11.4971 17.3059 11.6105 16.5409 11.6105 15.7004C11.6105 15.503 11.5989 15.323 11.5756 15.1604C11.5553 14.9949 11.5291 14.857 11.4942 14.7481C11.3968 14.6523 11.2907 14.4955 11.1745 14.2778C11.0611 14.0572 10.9652 13.8249 10.8838 13.581C10.8024 13.3342 10.7617 13.1339 10.7617 12.9829C10.8896 12.7783 11.0989 12.6171 11.3896 12.501C11.6803 12.3849 12 12.3544 12.3489 12.4081C12.5538 12.7913 12.7224 13.2718 12.8547 13.8481C13.1832 13.8409 13.625 13.7712 14.1803 13.6391C14.5291 13.5621 14.8096 13.5099 15.0233 13.4823C15.2355 13.4562 15.4201 13.4417 15.5756 13.4417C16.1642 13.4417 16.6279 13.6623 16.9651 14.1036C17.3023 14.5449 17.4709 15.1415 17.4709 15.892V18.5282C17.4709 19.1596 17.5552 19.5995 17.7267 19.8463C17.8968 20.0901 18.1453 20.2121 18.4709 20.2121C18.625 20.2121 18.7442 20.2789 18.8256 20.4095C18.907 20.5416 18.9477 20.7158 18.9477 20.9321C18.9477 21.1063 18.9011 21.2631 18.8081 21.4024C18.7151 21.5447 18.5654 21.6173 18.3605 21.6173C17.6933 21.6173 17.1294 21.3923 16.6686 20.9437C16.2108 20.4908 15.9826 19.7461 15.9826 18.7082V16.1707C15.9826 15.683 15.9273 15.3404 15.8198 15.143C15.7108 14.9456 15.5145 14.8468 15.2326 14.8468C15.1308 14.8468 15.0204 14.8585 14.9012 14.8817C14.7805 14.902 14.5669 14.9441 14.2616 15.0094C13.7268 15.1227 13.3227 15.188 13.0524 15.2068C13.064 15.381 13.0698 15.5552 13.0698 15.7294C13.0698 16.9111 12.8983 17.9417 12.5582 18.8243C12.221 19.7069 11.7442 20.395 11.1279 20.8856C10.5117 21.3734 9.7922 21.6173 8.97099 21.6173Z" fill="#ED0004"/>
<path d="M18.2785 21.5593C18.139 21.5593 18.2257 21.5735 18.0726 21.4726C17.984 21.3449 17.6913 21.1573 17.6913 20.9483C17.6913 20.4809 17.8875 20.2457 18.2785 20.2457C18.6274 20.2457 19.014 20.0309 19.4413 19.6012C19.8672 19.1715 20.3657 18.4776 20.9355 17.5166L22.6855 14.5553C22.6622 14.4014 22.6506 14.236 22.6506 14.0618C22.6506 13.516 22.7509 13.1138 22.9529 12.854C23.1579 12.5913 23.325 12.433 23.4529 12.3779C23.639 12.3358 23.8381 12.3401 24.0517 12.3895C24.264 12.4359 24.4587 12.5158 24.6331 12.6276C24.8076 12.7364 24.9267 12.8656 24.9936 13.0166C24.95 13.214 24.8686 13.4506 24.7494 13.725C24.6288 13.9964 24.4369 14.3608 24.1738 14.8166C24.2509 14.9371 24.3497 15.0576 24.4704 15.1766C24.5895 15.2971 24.7378 15.4292 24.9122 15.5715L26.1564 16.5818C26.6055 16.9418 26.9413 17.3163 27.1622 17.7025C27.386 18.09 27.4994 18.5241 27.4994 19.0031C27.4994 19.5809 27.3366 20.0933 27.011 20.5419C27.0648 20.6623 27.0924 20.8031 27.0924 20.9657C27.0924 21.1748 27.0401 21.3417 26.9354 21.4651C26.8308 21.5885 26.6855 21.6509 26.4994 21.6509C26.325 21.6509 26.1564 21.6393 25.9936 21.6161C25.8308 21.5957 25.6506 21.5711 25.4529 21.5406C25.1578 21.6132 24.8453 21.6509 24.5169 21.6509C24.1361 21.6509 23.7552 21.5928 23.3715 21.4767C22.9907 21.3649 22.5939 21.1835 22.1797 20.9309C22.1564 20.3546 22.373 19.9307 22.8308 19.6593C23.4311 20.0512 23.9994 20.2457 24.5343 20.2457C24.9951 20.2457 25.3613 20.1238 25.6331 19.8799C25.9035 19.6331 26.0401 19.3196 26.0401 18.9392C26.0401 18.4602 25.7785 18.0131 25.2552 17.5979L24.0111 16.6166C23.793 16.4424 23.5983 16.2624 23.4238 16.0766L21.7843 18.8405C21.1826 19.8552 20.607 20.5767 20.0576 21.0064C19.5067 21.4361 18.9907 21.5593 18.2785 21.5593Z" fill="#0C0E12"/>
</g>
<defs>
<filter id="filter0_d_492_631" x="0" y="0" width="36" height="36" filterUnits="userSpaceOnUse" color-interpolation-filters="sRGB">
<feFlood flood-opacity="0" result="BackgroundImageFix"/>
<feColorMatrix in="SourceAlpha" type="matrix" values="0 0 0 0 0 0 0 0 0 0 0 0 0 0 0 0 0 0 127 0" result="hardAlpha"/>
<feOffset dy="1"/>
<feGaussianBlur stdDeviation="1"/>
<feColorMatrix type="matrix" values="0 0 0 0 0.0627451 0 0 0 0 0.0941176 0 0 0 0 0.156863 0 0 0 0.05 0"/>
<feBlend mode="normal" in2="BackgroundImageFix" result="effect1_dropShadow_492_631"/>
<feBlend mode="normal" in="SourceGraphic" in2="effect1_dropShadow_492_631" result="shape"/>
</filter>
</defs>
</svg>
