<svg width="110" height="33" viewBox="0 0 110 33" fill="none" xmlns="http://www.w3.org/2000/svg">
<path d="M0.67985 20.5351C0.476098 20.5351 0.312672 20.4385 0.18745 20.2494C0.0579825 20.0645 -0.0078125 19.8208 -0.0078125 19.5182C-0.0078125 18.8417 0.278714 18.5013 0.849643 18.5013C1.55004 18.5013 2.17615 18.2156 2.72586 17.6441C3.27981 17.0684 3.71915 16.2826 4.04176 15.2909C4.36861 14.295 4.53416 13.1878 4.53416 11.9712C4.53416 11.6855 4.51718 11.425 4.48322 11.1897C4.45351 10.9501 4.4153 10.7505 4.36436 10.593C4.22216 10.4543 4.06722 10.2274 3.89743 9.91222C3.73188 9.59286 3.5918 9.25669 3.47295 8.90372C3.35409 8.54654 3.29467 8.2566 3.29467 8.03809C3.48144 7.74184 3.78707 7.50862 4.21155 7.34054C4.63603 7.17245 5.10296 7.12833 5.61234 7.20607C5.9116 7.76075 6.1578 8.4562 6.35094 9.29031C6.83061 9.27981 7.47582 9.17896 8.28659 8.98776C8.79597 8.87641 9.20559 8.80077 9.51759 8.76085C9.82746 8.72303 10.097 8.70202 10.3241 8.70202C11.1837 8.70202 11.8607 9.02138 12.3531 9.6601C12.8455 10.2988 13.0917 11.1623 13.0917 12.2486V16.0641C13.0917 16.978 13.2148 17.6147 13.4653 17.9718C13.7136 18.3248 14.0765 18.5013 14.552 18.5013C14.7769 18.5013 14.951 18.598 15.0698 18.7871C15.1887 18.9782 15.2481 19.2304 15.2481 19.5434C15.2481 19.7956 15.1802 20.0225 15.0444 20.2242C14.9085 20.4301 14.6899 20.5351 14.3907 20.5351C13.4165 20.5351 12.593 20.2095 11.9202 19.5602C11.2516 18.9047 10.9184 17.8269 10.9184 16.3246V12.652C10.9184 11.946 10.8377 11.4502 10.6807 11.1644C10.5215 10.8787 10.235 10.7358 9.82322 10.7358C9.67465 10.7358 9.51334 10.7526 9.3393 10.7863C9.16314 10.8157 8.85115 10.8766 8.40544 10.9712C7.62439 11.135 7.03436 11.2296 6.63959 11.2569C6.65657 11.509 6.66506 11.7611 6.66506 12.0133C6.66506 13.7235 6.41462 15.2153 5.91797 16.4927C5.42557 17.7701 4.72942 18.766 3.82951 19.4762C2.92961 20.1821 1.87901 20.5351 0.67985 20.5351Z" fill="#FF595C"/>
<path d="M14.3595 20.4767C14.1558 20.4767 13.9924 20.38 13.8671 20.1909C13.7377 20.006 13.6719 19.7623 13.6719 19.4597C13.6719 18.7832 13.9584 18.4428 14.5293 18.4428C14.992 18.4428 15.4632 18.3714 15.9386 18.2243C16.4183 18.0731 16.9786 17.8167 17.6196 17.4511C16.9956 16.3754 16.6857 15.1127 16.6857 13.6609C16.6857 12.6818 16.8661 11.8182 17.2291 11.0724C17.5962 10.3223 18.1056 9.7319 18.7572 9.29908C19.413 8.86206 20.158 8.64355 20.99 8.64355C21.6904 8.64355 22.3101 8.80744 22.8492 9.131C23.3926 9.45036 23.8128 9.89578 24.1142 10.4673C24.4198 11.0345 24.5726 11.6901 24.5726 12.4338C24.5726 13.4423 24.2712 14.3668 23.6727 15.2072C23.0784 16.0434 22.0703 16.9469 20.6504 17.9218C21.1598 18.2874 21.8474 18.468 22.7134 18.468C22.9341 18.468 23.106 18.5647 23.2313 18.7538C23.3607 18.945 23.4265 19.1971 23.4265 19.5102C23.4265 19.8085 23.3522 20.0438 23.2058 20.2161C23.0636 20.3884 22.8598 20.4767 22.5945 20.4767C21.8241 20.4767 21.1046 20.3506 20.4382 20.0985C19.7696 19.8463 19.2114 19.4997 18.7657 19.0563C17.2312 20.0039 15.7625 20.4767 14.3595 20.4767ZM18.7657 13.476C18.7657 14.7198 18.9885 15.7157 19.4364 16.4594C20.4721 15.7493 21.2383 15.0538 21.7371 14.3752C22.2401 13.6987 22.4927 13.0516 22.4927 12.4338C22.4927 11.8624 22.3526 11.4169 22.0767 11.0976C21.7986 10.774 21.4102 10.6101 20.9136 10.6101C20.2896 10.6101 19.776 10.8875 19.3685 11.4421C18.9652 11.9926 18.7657 12.6692 18.7657 13.476Z" fill="#FF595C"/>
<path d="M37.8403 20.2848C37.6366 20.2848 37.6697 20.0407 37.4461 19.8947C37.3167 19.7098 37.0273 19.7102 37.0273 19.4076C37.0273 18.7311 37.3139 18.3907 37.8848 18.3907C38.3942 18.3907 38.9587 18.0798 39.5827 17.4578C40.2046 16.8359 40.9326 15.8316 41.7646 14.4407L44.32 10.1546C44.286 9.9319 44.269 9.69238 44.269 9.44025C44.269 8.65026 44.4155 8.06827 44.7105 7.69218C45.0097 7.31189 45.2538 7.08288 45.4406 7.00304C45.7123 6.94211 46.003 6.94841 46.315 7.01985C46.6249 7.08708 46.9093 7.20264 47.164 7.36442C47.4187 7.522 47.5927 7.70899 47.6904 7.9275C47.6267 8.21324 47.5078 8.55571 47.3338 8.95281C47.1576 9.3457 46.8775 9.87307 46.4933 10.5328C46.6058 10.7072 46.7501 10.8816 46.9263 11.0539C47.1003 11.2282 47.3168 11.4194 47.5715 11.6253L49.3883 13.0877C50.0441 13.6087 50.5344 14.1508 50.857 14.7097C51.1839 15.2707 51.3494 15.8989 51.3494 16.5922C51.3494 17.4284 51.1117 18.1701 50.6363 18.8193C50.7148 18.9937 50.7551 19.1975 50.7551 19.4328C50.7551 19.7354 50.6787 19.977 50.5259 20.1556C50.3731 20.3342 50.1609 20.4245 49.8892 20.4245C49.6345 20.4245 49.3883 20.4077 49.1506 20.3741C48.9129 20.3447 48.6497 20.309 48.361 20.2648C47.9302 20.3699 47.4739 20.4245 46.9942 20.4245C46.4381 20.4245 45.8821 20.3405 45.3217 20.1724C44.7657 20.0106 44.1863 19.748 43.5814 19.3824C43.5474 18.5483 43.8636 17.9348 44.5322 17.5419C45.4088 18.1092 46.2386 18.3907 47.0197 18.3907C47.6925 18.3907 48.2273 18.2142 48.6242 17.8612C49.019 17.5041 49.2185 17.0502 49.2185 16.4998C49.2185 15.8064 48.8365 15.1593 48.0724 14.5584L46.2556 13.1381C45.9372 12.886 45.6528 12.6254 45.3982 12.3565L43.0041 16.3569C42.1254 17.8255 41.2849 18.8698 40.4826 19.4917C39.6782 20.1136 38.8803 20.2848 37.8403 20.2848Z" fill="white"/>
<path d="M51.2871 18.4485C51.6883 18.4485 52.1467 18.3308 52.6625 18.0955C53.1825 17.8602 53.6897 17.461 54.1821 16.8937C54.6745 16.3222 55.0778 15.5532 55.3961 14.5826C55.7188 13.6077 55.8801 12.387 55.8801 10.9183V8.6492H54.1142C53.9996 8.39707 53.9444 8.08402 53.9444 7.70793C53.9444 7.32764 53.9996 7.01038 54.1142 6.75826H55.8801V2.56457C56.1857 2.45321 56.5529 2.39648 56.9837 2.39648C57.3615 2.39648 57.7266 2.45321 58.0789 2.56457V6.75826H61.6445C61.7676 7.01038 61.8313 7.32764 61.8313 7.70793C61.8313 8.08402 61.7676 8.39707 61.6445 8.6492H58.0789V13.5488C58.0789 15.1288 58.3208 16.3432 58.809 17.1879C59.295 18.0283 59.9848 18.4485 60.8805 18.4485C61.3389 18.4485 61.5681 18.7973 61.5681 19.4906C61.5681 19.7932 61.4917 20.0348 61.3389 20.2134C61.1903 20.3919 60.9823 20.4823 60.7107 20.4823C59.6749 20.4823 58.8005 20.1902 58.0874 19.6083C57.3785 19.0263 56.8585 18.2132 56.5253 17.171C55.8567 18.3098 55.0353 19.146 54.0633 19.6839C53.0891 20.2155 52.1064 20.4823 51.1174 20.4823C50.9136 20.4823 50.7502 20.3835 50.6249 20.1881C50.4955 19.9928 50.4297 19.7511 50.4297 19.4654C50.4297 19.1691 50.5018 18.9254 50.6419 18.7342C50.7841 18.5451 50.9985 18.4485 51.2871 18.4485Z" fill="white"/>
<path d="M59.5705 20.5288C59.3667 20.5288 59.2033 20.4321 59.0781 20.243C58.9486 20.0581 58.8828 19.8144 58.8828 19.5119C58.8828 18.8353 59.1693 18.495 59.7403 18.495C60.4407 18.495 61.0668 18.2092 61.6165 17.6377C62.1704 17.062 62.6098 16.2763 62.9324 15.2846C63.2592 14.2887 63.4248 13.1814 63.4248 11.9649C63.4248 11.6792 63.4078 11.4186 63.3738 11.1833C63.3441 10.9438 63.3059 10.7442 63.255 10.5866C63.1128 10.4479 62.9578 10.221 62.7881 9.90587C62.6225 9.58651 62.4824 9.25035 62.3636 8.89737C62.2447 8.54019 62.1853 8.25025 62.1853 8.03174C62.3721 7.73549 62.6777 7.50227 63.1022 7.33419C63.5267 7.16611 63.9936 7.12199 64.503 7.19972C64.8022 7.7544 65.0484 8.44985 65.2416 9.28396C65.7212 9.27346 66.3664 9.17261 67.1772 8.98141C67.6866 8.87006 68.0962 8.79442 68.4082 8.7545C68.7181 8.71668 68.9876 8.69567 69.2147 8.69567C70.0743 8.69567 70.7514 9.01503 71.2438 9.65375C71.7362 10.2925 71.9824 11.156 71.9824 12.2422V16.0577C71.9824 16.9717 72.1055 17.6083 72.3559 17.9655C72.6042 18.3185 72.9672 18.495 73.4426 18.495C73.6676 18.495 73.8416 18.5916 73.9605 18.7807C74.0793 18.9719 74.1387 19.224 74.1387 19.5371C74.1387 19.7892 74.0708 20.0161 73.935 20.2178C73.7991 20.4237 73.5805 20.5288 73.2813 20.5288C72.3071 20.5288 71.4836 20.2031 70.8108 19.5539C70.1422 18.8984 69.809 17.8205 69.809 16.3183V12.6456C69.809 11.9397 69.7284 11.4438 69.5713 11.1581C69.4121 10.8724 69.1256 10.7295 68.7138 10.7295C68.5653 10.7295 68.404 10.7463 68.2299 10.7799C68.0538 10.8093 67.7418 10.8703 67.2961 10.9648C66.515 11.1287 65.925 11.2232 65.5302 11.2505C65.5472 11.5027 65.5557 11.7548 65.5557 12.0069C65.5557 13.7172 65.3052 15.2089 64.8086 16.4864C64.3162 17.7638 63.62 18.7597 62.7201 19.4698C61.8202 20.1758 60.7696 20.5288 59.5705 20.5288Z" fill="white"/>
<path d="M72.2286 18.3313C72.5618 18.3313 72.9205 18.2305 73.3067 18.0288C73.6909 17.8229 74.0496 17.5056 74.3849 17.0791C74.7797 16.5413 75.0683 15.9256 75.2509 15.2302C75.4376 14.5369 75.5523 13.833 75.599 13.1207V8.85982C75.7454 8.8157 75.9131 8.77998 76.0998 8.75057C76.2909 8.71695 76.4925 8.70014 76.7026 8.70014C77.0698 8.70014 77.4285 8.75477 77.7808 8.85982V15.684C77.7808 16.5202 77.9103 17.1695 78.1713 17.6338C78.4366 18.1002 78.8802 18.3313 79.5042 18.3313C79.7695 18.3313 79.9499 18.4448 80.0475 18.6675C80.143 18.886 80.1919 19.1213 80.1919 19.3735C80.1919 19.6256 80.1239 19.8525 79.9881 20.0542C79.8523 20.2601 79.6337 20.3652 79.3344 20.3652C77.6747 20.3652 76.6007 19.592 76.1083 18.0456C75.8812 18.4112 75.6414 18.7179 75.3867 18.9701C74.9559 19.3966 74.4571 19.7348 73.8925 19.987C73.3258 20.2391 72.7146 20.3652 72.0588 20.3652C71.838 20.3652 71.6682 20.258 71.5494 20.0458C71.4305 19.8336 71.3711 19.6004 71.3711 19.3483C71.3711 19.0793 71.439 18.844 71.5748 18.6423C71.7107 18.4364 71.9293 18.3313 72.2286 18.3313ZM76.7535 4.85943C76.3057 4.85943 75.9216 4.70395 75.599 4.3888C75.2806 4.07574 75.1235 3.69755 75.1235 3.25423C75.1235 2.7962 75.2785 2.41171 75.5905 2.10286C75.9003 1.7961 76.2887 1.64062 76.7535 1.64062C77.212 1.64062 77.5961 1.7961 77.9081 2.10286C78.218 2.41171 78.3751 2.7962 78.3751 3.25423C78.3751 3.69755 78.218 4.07574 77.9081 4.3888C77.5961 4.70395 77.212 4.85943 76.7535 4.85943Z" fill="white"/>
<path d="M78.1799 20.4767C77.9761 20.4767 77.8127 20.38 77.6875 20.1909C77.558 20.006 77.4922 19.7623 77.4922 19.4597C77.4922 18.7832 77.7787 18.4428 78.3496 18.4428C78.859 18.4428 79.3175 18.1886 79.725 17.6781C80.1325 17.1633 80.489 16.3061 80.7947 15.1064L81.5078 12.333C82.1742 9.87477 83.4519 8.64355 85.3367 8.64355C86.054 8.64355 86.661 8.85366 87.1534 9.27387C87.6458 9.68988 87.9876 10.253 88.1807 10.9631C88.6264 10.2235 89.2016 9.65206 89.9041 9.24866C90.6045 8.84526 91.3855 8.64355 92.2473 8.64355C93.491 8.64355 94.4503 9.04696 95.1253 9.85376C95.8044 10.6564 96.144 11.7825 96.144 13.2322V16.0056C96.144 16.9196 96.265 17.5562 96.5091 17.9134C96.7574 18.2663 97.1225 18.4428 97.6042 18.4428C97.825 18.4428 97.9948 18.5395 98.1136 18.7286C98.2367 18.9198 98.3004 19.1719 98.3004 19.485C98.3004 19.7371 98.2325 19.964 98.0966 20.1657C97.9608 20.3716 97.7401 20.4767 97.4344 20.4767C96.4603 20.4767 95.6389 20.151 94.9724 19.5018C94.3039 18.8462 93.9707 17.7684 93.9707 16.2662V13.2322C93.9707 11.5304 93.2915 10.6774 91.9331 10.6774C91.2306 10.6774 90.613 10.9547 90.0824 11.5094C89.5497 12.0599 89.1337 12.8246 88.8344 13.8037C88.5394 14.7849 88.3929 15.9216 88.3929 17.2158V20.1489C88.2338 20.193 88.0576 20.2329 87.8666 20.2665C87.6798 20.3002 87.4973 20.317 87.3232 20.317C86.937 20.317 86.5783 20.2602 86.245 20.1489V12.5935C86.245 11.3161 85.8757 10.6774 85.1414 10.6774C84.806 10.6774 84.5216 10.8286 84.2839 11.1312C84.0462 11.4295 83.8382 11.9107 83.6642 12.5767L82.7728 15.9804C82.3589 17.5436 81.7837 18.6845 81.0494 19.4009C80.3193 20.1195 79.362 20.4767 78.1799 20.4767Z" fill="white"/>
<path d="M96.3926 18.3111C96.936 18.3111 97.4644 18.052 97.9802 17.5317C98.5002 17.0073 98.9353 16.3025 99.2876 15.4174C99.2706 15.1977 99.2621 14.978 99.2621 14.7624C99.2621 13.5809 99.4998 12.53 99.9753 11.6118C100.455 10.6894 101.107 9.966 101.928 9.43951C102.747 8.90887 103.685 8.64355 104.738 8.64355C105.298 8.64355 105.846 8.74927 106.385 8.95862C106.928 9.17004 107.382 9.45402 107.752 9.81261V8.85083C107.898 8.80731 108.066 8.77207 108.253 8.74305C108.444 8.70988 108.645 8.6933 108.855 8.6933C109.233 8.6933 109.594 8.74719 109.934 8.85083V26.3949C109.934 28.2957 109.594 29.7052 108.915 30.6234C108.236 31.5396 107.145 31.9998 105.646 31.9998C104.53 31.9998 103.613 31.6204 102.896 30.8639C102.183 30.1115 101.826 29.1186 101.826 27.8874C101.826 25.0228 103.84 22.3447 107.871 19.8532V18.8251C107.423 19.2956 106.896 19.6625 106.292 19.9278C105.685 20.1869 105.027 20.3175 104.313 20.3175C103.384 20.3175 102.567 20.1206 101.86 19.7288C101.151 19.3309 100.574 18.7816 100.128 18.0789C99.1369 19.5713 97.8359 20.3175 96.2228 20.3175C96.0191 20.3175 95.8556 20.2222 95.7304 20.0356C95.601 19.8532 95.5352 19.6128 95.5352 19.3143C95.5352 18.6468 95.8217 18.3111 96.3926 18.3111ZM101.486 14.7624C101.486 15.8693 101.743 16.7357 102.259 17.3659C102.779 17.996 103.494 18.3111 104.407 18.3111C105.409 18.3111 106.215 17.9504 106.826 17.2249C107.442 16.5015 107.752 15.548 107.752 14.3645V12.0512C107.433 11.6325 107.026 11.2947 106.529 11.0397C106.037 10.7806 105.527 10.65 105.001 10.65C104.316 10.65 103.711 10.8303 103.184 11.1889C102.658 11.5496 102.242 12.0346 101.936 12.6482C101.635 13.2617 101.486 13.9665 101.486 14.7624ZM103.931 27.7961C103.931 28.4968 104.088 29.044 104.407 29.4378C104.723 29.8358 105.162 30.0348 105.723 30.0348C106.47 30.0348 107.013 29.728 107.353 29.1144C107.697 28.5009 107.871 27.593 107.871 26.3949V22.2576C105.243 24.0651 103.931 25.9099 103.931 27.7961Z" fill="white"/>
<path d="M23.9746 18.3903C24.518 18.3903 25.0465 18.1277 25.5622 17.6003C26.0822 17.0687 26.5173 16.3544 26.8696 15.4572C26.8526 15.2345 26.8442 15.0118 26.8442 14.7933C26.8442 13.5957 27.0819 12.5305 27.5573 11.5997C28.037 10.6647 28.6885 9.93147 29.5099 9.39781C30.3292 8.85994 31.2673 8.591 32.32 8.591C32.8803 8.591 33.4279 8.69816 33.967 8.91036C34.5103 9.12467 34.9645 9.41251 35.3338 9.77599V0.212029C35.6395 0.100674 36.0066 0.0439453 36.4375 0.0439453C36.8047 0.0439453 37.1634 0.100674 37.5157 0.212029V15.9531C37.5157 16.867 37.6367 17.5036 37.8807 17.8608C38.1291 18.2138 38.492 18.3903 38.9674 18.3903C39.1924 18.3903 39.3664 18.4869 39.4853 18.676C39.6041 18.8672 39.6636 19.1193 39.6636 19.4324C39.6636 19.6845 39.5957 19.9114 39.4598 20.1131C39.324 20.319 39.1054 20.4241 38.8061 20.4241C38.1482 20.4241 37.5496 20.2749 37.0063 19.9787C36.4672 19.6761 36.0555 19.2034 35.7668 18.5584C35.302 19.1425 34.7396 19.5984 34.0774 19.9283C33.4152 20.2581 32.6872 20.4241 31.8955 20.4241C30.9659 20.4241 30.1488 20.2245 29.442 19.8274C28.7331 19.424 28.1558 18.8672 27.7101 18.155C26.7189 19.6677 25.4179 20.4241 23.8049 20.4241C23.6011 20.4241 23.4377 20.3274 23.3125 20.1384C23.183 19.9535 23.1172 19.7097 23.1172 19.4072C23.1172 18.7307 23.4037 18.3903 23.9746 18.3903ZM29.0685 14.7933C29.0685 15.9153 29.3253 16.7935 29.841 17.4322C30.361 18.0709 31.0763 18.3903 31.9889 18.3903C32.9907 18.3903 33.7972 18.0247 34.4085 17.2893C35.024 16.5561 35.3338 15.5896 35.3338 14.3899V12.0451C35.0155 11.6207 34.608 11.2782 34.1113 11.0198C33.6189 10.7572 33.1095 10.6248 32.5832 10.6248C31.8976 10.6248 31.2927 10.8076 30.7664 11.1711C30.24 11.5367 29.824 12.0283 29.5184 12.6502C29.217 13.2721 29.0685 13.9865 29.0685 14.7933Z" fill="#FF595C"/>
<mask id="mask0_896_44872" style="mask-type:luminance" maskUnits="userSpaceOnUse" x="74" y="0" width="5" height="5">
<path d="M74.5977 0.925781H78.6727V4.95979H74.5977V0.925781Z" fill="white"/>
</mask>
<g mask="url(#mask0_896_44872)">
<path fill-rule="evenodd" clip-rule="evenodd" d="M76.7307 0.925781C77.9086 0.925781 78.8637 1.87125 78.8637 3.03733C78.8637 4.20342 77.9086 5.14889 76.7307 5.14889C75.5527 5.14889 74.5977 4.20342 74.5977 3.03733C74.5977 1.87125 75.5527 0.925781 76.7307 0.925781Z" fill="#FF595C"/>
</g>
</svg>
